# xmcd CD database file
#
# Track frame offsets:
#	150
#	15368
#	50570
#	94074
#	124889
#	166314
#
# Disc length: 2575 seconds
#
# Revision: 0
# Processed by: cddbd v1.5.2PL0 Copyright (c) Steve Scherf et al.
# Submitted via: CDex 1.70beta3
#
DISCID=430a0d06
DTITLE=Pat Thomas - Stella by Starlight
DYEAR=2005
DGENRE=Jazz
TTITLE0=Paradigm
TTITLE1=She Called Him Miles
TTITLE2=Medley: Bye-ya ~ Giant Steps
TTITLE3=The Stare
TTITLE4=Stella by Starlight
TTITLE5=God Save the Queen
EXTD=YEAR: 2005
EXTT0=
EXTT1=
EXTT2=
EXTT3=
EXTT4=
EXTT5=
PLAYORDER=
